<?xml version="1.0" encoding="UTF-8"?>
<svg version="1.1" xmlns="http://www.w3.org/2000/svg" width="512" height="512">
<path d="M0 0 C0.639375 0.20898926 1.27875 0.41797852 1.9375 0.63330078 C23.90945058 8.0255775 41.45930185 22.80358175 52.1875 43.4375 C62.73644279 64.94927249 65.43924517 89.51916782 67.046875 113.1328125 C67.13106689 114.36621368 67.21525879 115.59961487 67.30200195 116.87039185 C68.22606182 131.28866101 68.56177353 145.72020443 68.89083862 160.16213989 C69.0747047 168.19845217 69.2892685 176.23399156 69.50390625 184.26953125 C69.52474337 185.05330328 69.54558048 185.83707531 69.56704903 186.64459801 C69.54049163 241.67410885 69.54049163 241.67410885 84 294 C84.30164063 294.74765625 84.60328125 295.4953125 84.9140625 296.265625 C86.01102003 298.46331735 86.01102003 298.46331735 89.75 298.9375 C93.87511459 299.51404161 96.49078534 298.13108355 100 296 C102.28142411 293.57499151 102.28142411 293.57499151 104.3125 290.875 C109.18437109 285.3001408 109.18437109 285.3001408 113.5625 284.5 C118.14240215 284.46786034 120.94101381 286.50443977 124.37109375 289.359375 C127.8597543 292.87313383 128.27011101 295.41425533 128.3293457 300.25732422 C128.32100708 301.49119873 128.32100708 301.49119873 128.3125 302.75 C128.30758545 303.59965332 128.3026709 304.44930664 128.29760742 305.32470703 C127.88319494 328.00050808 118.73441747 348.72534502 103 365 C87.27254479 378.8546324 68.89012397 385.46342891 48.0703125 384.17138672 C28.55786941 382.55608777 12.07664373 371.42853839 -0.5546875 357.03515625 C-14.43973572 339.80083921 -21.93464891 319.33230389 -25.640625 297.65234375 C-25.85080965 295.96896534 -25.85080965 295.96896534 -27 295 C-29.48404695 294.74957164 -31.93812391 294.57100398 -34.4296875 294.44140625 C-35.22059784 294.39915421 -36.01150818 294.35690216 -36.8263855 294.31336975 C-48.25202406 293.77107256 -59.68992912 293.89404247 -71.125 293.9375 C-73.45182194 293.94252939 -75.77864495 293.94708973 -78.10546875 293.95117188 C-83.73700285 293.96205345 -89.36849625 293.97867551 -95 294 C-95.81282941 297.64722602 -96.61798703 301.29610617 -97.421875 304.9453125 C-97.64987793 305.96794189 -97.87788086 306.99057129 -98.11279297 308.04418945 C-100.49355991 318.88750072 -101.85152973 329.63513438 -102.28271484 340.71948242 C-102.71913076 351.2084735 -104.49916341 359.31640436 -111.8984375 367.125 C-127.79845696 381.31089097 -148.94017773 385.3401187 -169.61669922 384.21142578 C-182.79345399 383.04249835 -195.27342245 377.80184384 -204.34765625 368.078125 C-214.85062282 354.86872023 -213.40016561 336.42293403 -211.61328125 320.56884766 C-205.57752421 280.17152581 -184.43433835 243.21731882 -162.54492188 209.39404297 C-160.34198464 205.98032575 -158.16773767 202.54860349 -155.9909668 199.11816406 C-151.63697078 192.25776591 -147.26575149 185.40864449 -142.87109375 178.57421875 C-132.16501785 161.95338182 -132.16501785 161.95338182 -122 145 C-121.61183105 144.33049316 -121.22366211 143.66098633 -120.82373047 142.97119141 C-111.54412479 126.88335901 -102.03595769 110.27603481 -98 92 C-97.80664062 91.17113281 -97.61328125 90.34226562 -97.4140625 89.48828125 C-96.94665784 86.6794438 -96.90321368 84.03326474 -96.9375 81.1875 C-96.94652344 80.21167969 -96.95554687 79.23585938 -96.96484375 78.23046875 C-96.97644531 77.49441406 -96.98804688 76.75835937 -97 76 C-100.7202002 82.58554589 -103.16446214 89.16670655 -105.03588867 96.46484375 C-106.34110875 101.13507542 -107.81010182 103.51361797 -112 106 C-117.20150454 107.18598039 -122.34089051 105.88005704 -127.2734375 104.14453125 C-129.78091349 102.48233563 -130.72108603 100.70420967 -132 98 C-135.00368954 77.65147575 -126.85492955 53.7196078 -115.20703125 37.50390625 C-113.51815762 35.29308493 -111.77221669 33.144215 -110 31 C-109.5771875 30.43152344 -109.154375 29.86304688 -108.71875 29.27734375 C-96.64716968 13.70942157 -76.55542525 4.08231304 -58 -1 C-56.33904297 -1.47759766 -56.33904297 -1.47759766 -54.64453125 -1.96484375 C-37.0407685 -6.28124659 -17.1914692 -5.7702848 0 0 Z M-35 132 C-35.18048386 132.5422522 -35.36096771 133.08450439 -35.54692078 133.64318848 C-41.09897388 150.21170474 -47.44070236 166.41996336 -54.03637695 182.59429932 C-55.08478237 185.16856499 -56.12829993 187.74479894 -57.17162037 190.32112885 C-59.33452537 195.66204113 -61.50112965 201.00145135 -63.67504883 206.33789062 C-64.07728668 207.32571533 -64.47952454 208.31354004 -64.89395142 209.33129883 C-65.83402294 211.59952646 -66.81304612 213.84281958 -67.81518555 216.08398438 C-69.18821349 218.93863515 -69.18821349 218.93863515 -69 222 C-56.13 221.34 -43.26 220.68 -30 220 C-29.79529803 203.41914076 -30.17842559 186.93942696 -30.875 170.375 C-30.91429626 169.38916931 -30.95359253 168.40333862 -30.99407959 167.38763428 C-31.47447944 155.49471225 -32.27191857 143.78275891 -34 132 C-34.33 132 -34.66 132 -35 132 Z " fill="#FE354D" transform="translate(298,66)"/>
<path d="M0 0 C0.639375 0.20898926 1.27875 0.41797852 1.9375 0.63330078 C23.90945058 8.0255775 41.45930185 22.80358175 52.1875 43.4375 C62.73644279 64.94927249 65.43924517 89.51916782 67.046875 113.1328125 C67.13106689 114.36621368 67.21525879 115.59961487 67.30200195 116.87039185 C68.22606182 131.28866101 68.56177353 145.72020443 68.89083862 160.16213989 C69.0747047 168.19845217 69.2892685 176.23399156 69.50390625 184.26953125 C69.52474337 185.05330328 69.54558048 185.83707531 69.56704903 186.64459801 C69.54049163 241.67410885 69.54049163 241.67410885 84 294 C84.30164063 294.74765625 84.60328125 295.4953125 84.9140625 296.265625 C86.01102003 298.46331735 86.01102003 298.46331735 89.75 298.9375 C93.87511459 299.51404161 96.49078534 298.13108355 100 296 C102.28142411 293.57499151 102.28142411 293.57499151 104.3125 290.875 C109.18437109 285.3001408 109.18437109 285.3001408 113.5625 284.5 C118.14240215 284.46786034 120.94101381 286.50443977 124.37109375 289.359375 C127.8597543 292.87313383 128.27011101 295.41425533 128.3293457 300.25732422 C128.32100708 301.49119873 128.32100708 301.49119873 128.3125 302.75 C128.30758545 303.59965332 128.3026709 304.44930664 128.29760742 305.32470703 C127.88319494 328.00050808 118.73441747 348.72534502 103 365 C87.27254479 378.8546324 68.89012397 385.46342891 48.0703125 384.17138672 C28.55786941 382.55608777 12.07664373 371.42853839 -0.5546875 357.03515625 C-14.43973572 339.80083921 -21.93464891 319.33230389 -25.640625 297.65234375 C-25.85080965 295.96896534 -25.85080965 295.96896534 -27 295 C-29.48404695 294.74957164 -31.93812391 294.57100398 -34.4296875 294.44140625 C-35.22059784 294.39915421 -36.01150818 294.35690216 -36.8263855 294.31336975 C-48.25202406 293.77107256 -59.68992912 293.89404247 -71.125 293.9375 C-73.45182194 293.94252939 -75.77864495 293.94708973 -78.10546875 293.95117188 C-83.73700285 293.96205345 -89.36849625 293.97867551 -95 294 C-95.81282941 297.64722602 -96.61798703 301.29610617 -97.421875 304.9453125 C-97.64987793 305.96794189 -97.87788086 306.99057129 -98.11279297 308.04418945 C-100.49355991 318.88750072 -101.85152973 329.63513438 -102.28271484 340.71948242 C-102.71913076 351.2084735 -104.49916341 359.31640436 -111.8984375 367.125 C-127.79845696 381.31089097 -148.94017773 385.3401187 -169.61669922 384.21142578 C-182.79345399 383.04249835 -195.27342245 377.80184384 -204.34765625 368.078125 C-214.85062282 354.86872023 -213.40016561 336.42293403 -211.61328125 320.56884766 C-205.57752421 280.17152581 -184.43433835 243.21731882 -162.54492188 209.39404297 C-160.34198464 205.98032575 -158.16773767 202.54860349 -155.9909668 199.11816406 C-151.63697078 192.25776591 -147.26575149 185.40864449 -142.87109375 178.57421875 C-132.16501785 161.95338182 -132.16501785 161.95338182 -122 145 C-121.61183105 144.33049316 -121.22366211 143.66098633 -120.82373047 142.97119141 C-111.54412479 126.88335901 -102.03595769 110.27603481 -98 92 C-97.80664062 91.17113281 -97.61328125 90.34226562 -97.4140625 89.48828125 C-96.94665784 86.6794438 -96.90321368 84.03326474 -96.9375 81.1875 C-96.94652344 80.21167969 -96.95554687 79.23585938 -96.96484375 78.23046875 C-96.97644531 77.49441406 -96.98804688 76.75835937 -97 76 C-100.7202002 82.58554589 -103.16446214 89.16670655 -105.03588867 96.46484375 C-106.34110875 101.13507542 -107.81010182 103.51361797 -112 106 C-117.20150454 107.18598039 -122.34089051 105.88005704 -127.2734375 104.14453125 C-129.78091349 102.48233563 -130.72108603 100.70420967 -132 98 C-135.00368954 77.65147575 -126.85492955 53.7196078 -115.20703125 37.50390625 C-113.51815762 35.29308493 -111.77221669 33.144215 -110 31 C-109.5771875 30.43152344 -109.154375 29.86304688 -108.71875 29.27734375 C-96.64716968 13.70942157 -76.55542525 4.08231304 -58 -1 C-56.33904297 -1.47759766 -56.33904297 -1.47759766 -54.64453125 -1.96484375 C-37.0407685 -6.28124659 -17.1914692 -5.7702848 0 0 Z M-94 30 C-95.24910156 31.10794922 -95.24910156 31.10794922 -96.5234375 32.23828125 C-110.21070996 45.10431736 -119.89971542 63.06946279 -121 82 C-121.07330736 86.33490866 -121.06030111 90.6650202 -121 95 C-119.35 95.33 -117.7 95.66 -116 96 C-115.70867187 94.97261719 -115.41734375 93.94523437 -115.1171875 92.88671875 C-108.08594093 68.81037902 -108.08594093 68.81037902 -98 63 C-94.3125 61.8125 -94.3125 61.8125 -91 62 C-86.76280375 65.79117559 -86.16432646 69.5540638 -85.796875 75.0234375 C-85.20018522 117.68675676 -116.11465017 157.56871267 -138.4765625 191.61328125 C-143.24670052 198.8850859 -147.89087118 206.23389723 -152.50097656 213.60791016 C-154.06355442 216.10141795 -155.63712739 218.58778782 -157.2109375 221.07421875 C-180.07309558 257.36929786 -210.16956374 306.22270995 -201.34765625 351.3359375 C-198.63064941 359.84844821 -193.76918559 364.74944507 -185.9375 368.8125 C-184.31141064 369.58469478 -182.66400338 370.31330927 -181 371 C-180.15824219 371.36867188 -179.31648438 371.73734375 -178.44921875 372.1171875 C-173.26841604 373.44319136 -168.20109273 373.32827634 -162.875 373.3125 C-161.81023437 373.32861328 -160.74546875 373.34472656 -159.6484375 373.36132812 C-149.21098655 373.36766153 -139.83697615 371.37665005 -130.5625 366.5625 C-129.42941406 365.98628906 -128.29632813 365.41007812 -127.12890625 364.81640625 C-120.31193653 360.85898937 -115.72885014 356.47582095 -113 349 C-112.27435907 344.19873263 -112.30238355 339.34183629 -112.1953125 334.49609375 C-111.84419107 320.68614183 -109.29643257 306.97925914 -105.8671875 293.62890625 C-105.02174785 290.09100788 -104.49052228 286.60155106 -104 283 C-55.27708802 282.80178042 -55.27708802 282.80178042 -35.875 283.77734375 C-29.24920268 284.10941496 -22.63229918 284.09705804 -16 284 C-16.03480469 285.14339844 -16.06960938 286.28679687 -16.10546875 287.46484375 C-16.10048328 292.00261405 -15.3443981 296.15708888 -14.3125 300.5625 C-14.13170898 301.3447998 -13.95091797 302.12709961 -13.76464844 302.93310547 C-8.13541517 326.56725435 2.05775041 350.11198185 23 364 C37.87726433 372.6673348 51.84952646 375.19393515 68.91015625 372.34765625 C85.3775866 367.68555264 98.88169407 356.58184746 107.4765625 341.88671875 C114.97491617 327.67829987 118.2851313 314.04655605 118 298 C116.68 297.34 115.36 296.68 114 296 C113.5153125 296.60328125 113.030625 297.2065625 112.53125 297.828125 C107.37688972 303.97370841 103.23642413 308.26407012 95.109375 309.40625 C89.24176658 309.70110469 84.56103083 309.273613 79.74609375 305.75 C52.84221388 278.78593248 59.37196441 213.85208866 58.5078125 178.734375 C58.48662228 177.87946976 58.46543205 177.02456451 58.4435997 176.14375305 C58.22837303 167.44835599 58.01879368 158.7529574 57.83760262 150.05677795 C57.48649516 133.35715464 57.09658458 116.7549457 55.2313385 100.13972473 C54.98978405 97.90550936 54.78720751 95.67032362 54.59448242 93.43139648 C52.76319572 72.53188563 46.47687524 51.96565434 34 35 C33.46761719 34.26910156 32.93523437 33.53820312 32.38671875 32.78515625 C20.7886336 18.2515756 0.13341863 9.18695607 -17.83984375 6.31640625 C-45.39509384 3.55747515 -73.13926388 11.34764799 -94 30 Z " fill="#970019" transform="translate(298,66)"/>
<path d="M0 0 C2 1 2 1 2.89453125 3.24609375 C8.11075225 21.38078548 11.5451278 40.18664074 13 59 C13.0834668 60.01465332 13.16693359 61.02930664 13.25292969 62.07470703 C15.52847329 90.65865639 15.63114193 119.34230046 16 148 C15.23671387 148.01981934 14.47342773 148.03963867 13.68701172 148.06005859 C-16.24497195 148.43812902 -16.24497195 148.43812902 -45.63671875 153.4140625 C-48 154 -48 154 -51 154 C-50.40478293 149.46232507 -49.20840758 145.66687172 -47.4375 141.453125 C-47.17433487 140.82115204 -46.91116974 140.18917908 -46.64002991 139.53805542 C-46.06683664 138.16310131 -45.49084906 136.78930947 -44.91238403 135.41656494 C-43.65576896 132.43258224 -42.41476156 129.44218945 -41.17286682 126.45205688 C-40.50556805 124.84548823 -39.83761497 123.23919122 -39.16905212 121.63314819 C-35.45815243 112.71482007 -31.79804257 103.77605841 -28.16186523 94.82702637 C-27.44186672 93.05740976 -26.71993381 91.28857866 -25.99584961 89.52062988 C-21.21236513 77.84027522 -16.82079089 66.07845755 -12.73832703 54.13504028 C-12.03143483 52.09090095 -11.30344796 50.05598597 -10.56396484 48.0234375 C-4.99048967 32.6786418 -2.11430132 16.1570489 0 0 Z M0 50 C-0.18048386 50.5422522 -0.36096771 51.08450439 -0.54692078 51.64318848 C-6.09897388 68.21170474 -12.44070236 84.41996336 -19.03637695 100.59429932 C-20.08478237 103.16856499 -21.12829993 105.74479894 -22.17162037 108.32112885 C-24.33452537 113.66204113 -26.50112965 119.00145135 -28.67504883 124.33789062 C-29.07728668 125.32571533 -29.47952454 126.31354004 -29.89395142 127.33129883 C-30.83402294 129.59952646 -31.81304612 131.84281958 -32.81518555 134.08398438 C-34.18821349 136.93863515 -34.18821349 136.93863515 -34 140 C-21.13 139.34 -8.26 138.68 5 138 C5.20470197 121.41914076 4.82157441 104.93942696 4.125 88.375 C4.08570374 87.38916931 4.04640747 86.40333862 4.00592041 85.38763428 C3.52552056 73.49471225 2.72808143 61.78275891 1 50 C0.67 50 0.34 50 0 50 Z " fill="#970019" transform="translate(263,148)"/>
</svg>
